<svg xmlns="http://www.w3.org/2000/svg" width="53" height="74" viewBox="0 0 53 74" fill="none"><path d="M0.0573505 0L0 52.9901C1.13745 52.719 18.9543 52.8352 21.4013 52.8739C22.013 51.8478 22.7681 50.7829 23.4181 49.8052C24.0872 48.7404 24.8136 47.5981 25.521 46.5817C26.515 45.12 37.7653 28.1988 38.119 27.2888C35.9874 27.2888 26.9834 27.5695 25.6357 27.1726V24.9268L46.6068 24.8494C46.8936 26.6596 46.4921 26.6596 45.087 28.828L31.5523 49.3793C30.8832 50.4441 29.8318 51.8187 29.3921 52.8448C31.0266 52.961 39.9159 52.9997 41.321 52.7287C44.9054 52.022 44.8768 49.3018 46.0429 47.8498L47.3237 47.8111L46.5686 52.8545L52.2845 52.8932L52.3132 0.0193606H0.0573505V0Z" fill="black"></path><path d="M31.4663 56.2523L31.4089 63.3383C30.3288 62.3993 29.2774 60.5407 28.3216 59.321C25.8746 56.2136 26.6584 56.1749 24.1254 56.291V67.2782C25.0908 67.2395 24.6511 67.2588 25.1577 67.2588C25.1577 67.2588 25.0526 60.8601 25.1386 59.0499C25.9224 59.6404 26.3334 60.502 26.9452 61.2958C27.5856 62.1186 27.9966 62.7188 28.5796 63.5029C30.6825 66.3005 30.8259 67.2395 32.5464 67.2782L32.489 56.2523H31.4663Z" fill="black"></path><path d="M2.01684 56.2136L1.95949 57.1236H6.36591C5.81153 58.8951 0.0955947 65.7487 0.36323 67.2395L8.44009 67.2782C9.84518 67.2008 9.40549 67.0459 9.84518 64.558C8.6217 64.4806 9.52019 65.9714 7.57027 66.2908C6.5762 66.4457 4.56893 66.3682 3.46016 66.3295C3.95719 64.4419 9.67313 57.7431 9.55842 56.2136H2.01684Z" fill="black"></path><path d="M13.0377 56.291L13.095 67.2395H20.4741C20.6749 66.4941 21.0285 65.0324 20.7704 64.5193C19.8337 64.7904 20.3594 65.8165 18.9352 66.2521C18.0845 66.4941 15.7905 66.8039 15.4369 65.7777L15.3795 61.9637L18.0941 61.8863L18.0654 61.1796C17.4537 60.8698 16.2015 61.0247 15.3508 61.0634L15.4655 57.201C16.4883 57.1235 18.8492 56.8041 19.5183 57.6366C19.9006 58.0722 19.719 58.2658 20.2161 58.5369C20.2161 58.5369 20.3021 56.6492 20.2734 56.2523L13.0377 56.291Z" fill="black"></path><path d="M42.7835 56.9687L46.2818 57.1623L46.3392 67.2395L48.6428 67.2008L48.7001 57.1235C49.3405 57.1623 50.4206 57.0848 50.9464 57.3559C51.5007 57.6753 51.4147 58.0238 51.7015 58.5756C51.8735 58.9338 51.7015 58.6918 51.9595 58.9338C52.4184 58.3142 52.3228 58.3239 52.2463 58.3336C52.2176 58.3336 52.1889 58.3336 52.1985 58.3045L52.0838 56.262L44.5327 56.2233C44.0547 56.2233 43.6915 56.1652 43.4334 56.1652C43.0224 56.1652 42.8408 56.3007 42.7835 56.9687Z" fill="black"></path><path d="M37.2682 56.1555C37.2682 56.6879 37.2682 64.6355 37.2682 67.0459V67.2395L39.5718 67.2782V56.1265C38.9123 56.1458 38.052 56.1555 37.2682 56.1555Z" fill="black"></path><path d="M0.946292 70.8115C0.764682 70.8793 0.602189 70.9858 0.458813 71.131C0.305879 71.2762 0.191178 71.4504 0.124269 71.6343C0.0478014 71.8183 0.00956775 72.0215 0.00956775 72.2442C0.00956775 72.5056 0.0669182 72.7379 0.172061 72.9605C0.286762 73.1735 0.439696 73.3574 0.649981 73.5026C0.774241 73.5898 0.908059 73.6575 1.05143 73.7059C1.19481 73.7543 1.34775 73.7737 1.50068 73.7737C1.68229 73.7737 1.84478 73.7446 2.01683 73.6962C2.17933 73.6478 2.33226 73.5607 2.47564 73.4542V72.9896C2.34182 73.1445 2.19844 73.2606 2.04551 73.3381C1.89258 73.4155 1.72052 73.4542 1.52936 73.4542C1.33819 73.4542 1.14702 73.4058 0.984526 73.3187C0.812474 73.2316 0.678657 73.0961 0.554397 72.9315L0.411021 72.612L0.363229 72.2345C0.363229 72.0603 0.391904 71.9054 0.449255 71.7602C0.506605 71.615 0.592631 71.4891 0.697774 71.373C0.802916 71.2568 0.927175 71.1794 1.08011 71.1116C1.22349 71.0535 1.37642 71.0148 1.52936 71.0148C1.72052 71.0148 1.89258 71.0535 2.04551 71.1213C2.19844 71.189 2.35138 71.3052 2.4852 71.4601V71.0051C2.33226 70.8986 2.17933 70.8212 2.01683 70.7631C1.8639 70.7147 1.70141 70.6857 1.52936 70.6857C1.31907 70.6857 1.1279 70.7244 0.946292 70.7921" fill="black"></path><path d="M4.02416 73.3671C3.87122 73.309 3.75652 73.2219 3.63226 73.0961C3.51756 72.9799 3.44109 72.8541 3.38374 72.6992C3.32639 72.5637 3.29772 72.3991 3.29772 72.2442C3.29772 72.0796 3.32639 71.9247 3.38374 71.7699C3.44109 71.615 3.51756 71.4988 3.63226 71.373C3.73741 71.2568 3.87122 71.1794 4.02416 71.1213C4.15798 71.0632 4.31091 71.0342 4.4734 71.0342C4.6359 71.0342 4.78883 71.0632 4.92265 71.1213C5.07558 71.1794 5.19028 71.2568 5.31454 71.373C5.42924 71.4795 5.50571 71.615 5.57262 71.7699C5.62997 71.9247 5.65865 72.0699 5.65865 72.2442C5.65865 72.3991 5.62997 72.5637 5.57262 72.6992C5.51527 72.8541 5.4388 72.9702 5.31454 73.0961C5.19984 73.2219 5.07558 73.2897 4.92265 73.3574C4.78883 73.4155 4.6359 73.4446 4.4734 73.4446C4.31091 73.4446 4.15798 73.4155 4.02416 73.3671ZM3.89034 70.8309C3.69917 70.9083 3.53668 71.0148 3.38374 71.1697C3.23081 71.3052 3.12567 71.4698 3.03964 71.6537C2.96317 71.8473 2.9345 72.0506 2.9345 72.2636C2.9345 72.4572 2.96317 72.6605 3.03964 72.8541C3.12567 73.038 3.23081 73.2026 3.38374 73.3381C3.53668 73.493 3.69917 73.5994 3.89034 73.6672C4.07195 73.764 4.26312 73.7931 4.4734 73.7931C4.68369 73.7931 4.87486 73.764 5.06603 73.6672C5.24763 73.5898 5.41969 73.4833 5.56306 73.3381C5.716 73.2026 5.8307 73.038 5.90716 72.8541C5.98363 72.6701 6.01231 72.4765 6.01231 72.2636C6.01231 72.0506 5.98363 71.857 5.90716 71.6537C5.8307 71.4698 5.716 71.3052 5.56306 71.1697C5.42924 71.0148 5.24763 70.9083 5.06603 70.8309C4.87486 70.7534 4.67413 70.7147 4.4734 70.7147C4.27268 70.7147 4.07195 70.7631 3.89034 70.8309Z" fill="black"></path><path d="M7.92392 73.0767L6.91073 70.6663L6.32767 73.6962H6.66221L7.02543 71.7118L7.92392 73.8124L8.81285 71.7118L9.18563 73.6962H9.52017L8.92755 70.6663L7.92392 73.0767Z" fill="black"></path><path d="M10.2945 71.1019H10.4761C10.7628 71.1019 10.954 71.131 11.0591 71.2084C11.1643 71.2858 11.2216 71.4214 11.2216 71.6053C11.2216 71.7892 11.1643 71.9054 11.0687 71.9635C10.9636 72.0409 10.7533 72.0699 10.4761 72.0699H10.2945V71.1019ZM9.96948 70.7825V73.7059H10.2945V72.3894H10.5621C10.7724 72.3894 10.9349 72.37 11.04 72.3604L11.2981 72.2442L11.5084 71.9731C11.5657 71.8667 11.5944 71.7311 11.5944 71.5956C11.5944 71.4407 11.5657 71.3246 11.5084 71.1987L11.2981 70.9277L11.04 70.8212C10.9349 70.7922 10.7724 70.7921 10.5621 70.7921H9.96948V70.7825Z" fill="black"></path><path d="M12.9707 73.3671C12.8369 73.309 12.7031 73.2219 12.5788 73.0961C12.4737 72.9799 12.3876 72.8541 12.3207 72.6992C12.2634 72.5637 12.2347 72.3991 12.2347 72.2442C12.2347 72.0796 12.2634 71.9247 12.3207 71.7699C12.3781 71.615 12.4737 71.4988 12.5788 71.373C12.6935 71.2568 12.8178 71.1794 12.9707 71.1213C13.1236 71.0632 13.267 71.0342 13.42 71.0342C13.5824 71.0342 13.7354 71.0632 13.8788 71.1213C14.0126 71.1794 14.1464 71.2568 14.2515 71.373C14.3758 71.4795 14.4618 71.615 14.5192 71.7699C14.5765 71.9247 14.6148 72.0699 14.6148 72.2442C14.6148 72.3991 14.5861 72.5637 14.5192 72.6992C14.4618 72.8541 14.3758 72.9702 14.2515 73.0961C14.1464 73.2219 14.0126 73.2897 13.8788 73.3574C13.7258 73.4155 13.5824 73.4446 13.42 73.4446C13.267 73.4446 13.1236 73.4155 12.9707 73.3671ZM12.8369 70.8309C12.6457 70.9083 12.4832 71.0148 12.3303 71.1697C12.1965 71.3052 12.0722 71.4698 12.0053 71.6537C11.9288 71.8473 11.8906 72.0506 11.8906 72.2636C11.8906 72.4572 11.9384 72.6605 12.0053 72.8541C12.0818 73.038 12.1965 73.2026 12.3303 73.3381C12.4832 73.493 12.6457 73.5994 12.8369 73.6672C13.0281 73.764 13.2288 73.7931 13.42 73.7931C13.6302 73.7931 13.8214 73.764 14.0126 73.6672C14.2037 73.5898 14.3662 73.4833 14.5192 73.3381C14.6721 73.2026 14.7773 73.038 14.8537 72.8541C14.9302 72.6701 14.9684 72.4765 14.9684 72.2636C14.9684 72.0506 14.9206 71.857 14.8537 71.6537C14.7773 71.4698 14.6721 71.3052 14.5192 71.1697C14.3758 71.0148 14.2037 70.9083 14.0126 70.8309C13.8214 70.7534 13.6207 70.7147 13.42 70.7147C13.2288 70.7147 13.0281 70.7631 12.8369 70.8309Z" fill="black"></path><path d="M15.5229 73.6962H15.8478V71.5085L17.9698 73.8124V70.7728H17.6353V72.9993L15.5229 70.6663V73.6962Z" fill="black"></path><path d="M18.658 70.7728V73.6962H20.1778V73.3768H19.0021V72.2539H20.1778V71.9344H19.0021V71.0922H20.1778V70.7728H18.658Z" fill="black"></path><path d="M20.7608 73.6962H21.0858V71.5085L23.1982 73.8124V70.7728H22.8733V72.9993L20.7608 70.6663V73.6962Z" fill="black"></path><path d="M23.5806 70.7728V71.1116H24.3931V73.6962H24.7372V71.1116H25.5497V70.7728H23.5806Z" fill="black"></path><path d="M25.932 70.7728V73.6962H27.4613V73.3768H26.2761V72.2539H27.4613V71.9344H26.2761V71.0922H27.4613V70.7728H25.932Z" fill="black"></path><path d="M28.1686 70.9083C28.0157 71.0438 27.9392 71.2181 27.9392 71.4214C27.9392 71.5956 27.987 71.7505 28.0826 71.8763C28.1782 72.0022 28.3216 72.1087 28.5128 72.1861L28.8664 72.341C29.0194 72.4088 29.1245 72.4862 29.201 72.583L29.3157 72.9218C29.3157 73.0864 29.2583 73.2122 29.1532 73.309C29.048 73.4058 28.9046 73.4639 28.7326 73.4639C28.5892 73.4639 28.465 73.4155 28.3694 73.3284C28.2738 73.2413 28.2069 73.1058 28.1591 72.9218L27.8437 73.0767C27.901 73.2897 28.0062 73.4639 28.1591 73.5801C28.312 73.6963 28.5032 73.7543 28.7326 73.7543C29.0098 73.7543 29.2296 73.6769 29.4017 73.5123C29.5737 73.3478 29.6598 73.1348 29.6598 72.8637C29.6598 72.6798 29.612 72.5249 29.5164 72.3894C29.4208 72.2539 29.2774 72.1474 29.0863 72.0603L28.6752 71.8763L28.3789 71.6731L28.2834 71.402L28.4076 71.1019L28.723 70.9858L28.9907 71.0729L29.2105 71.3246L29.4973 71.1406C29.4304 70.9954 29.3252 70.8793 29.201 70.8115C29.0767 70.7341 28.9238 70.6953 28.7517 70.6953C28.5128 70.6953 28.3216 70.7631 28.1686 70.8986" fill="black"></path><path d="M32.6515 73.0767L31.6479 70.6663L31.0553 73.6962H31.3898L31.753 71.7118L32.6515 73.8124L33.55 71.7118L33.9132 73.6962H34.2478L33.6647 70.6663L32.6515 73.0767Z" fill="black"></path><path d="M34.6971 70.7728V73.6962H36.2169V73.3768H35.0316V72.2539H36.2169V71.9344H35.0316V71.0922H36.2169V70.7728H34.6971Z" fill="black"></path><path d="M36.4845 70.7728V71.1116H37.297V73.6962H37.6506V71.1116H38.4631V70.7728H36.4845Z" fill="black"></path><path d="M39.8778 69.7951L39.4763 70.4824H39.7153L40.2792 69.7951H39.8778Z" fill="black"></path><path d="M39.7534 71.4311L40.2122 72.5056H39.3042L39.7534 71.4311ZM38.4535 73.7059H38.8263L39.199 72.8153H40.3174L40.6901 73.7059H41.0629L39.7534 70.6663L38.4535 73.7059Z" fill="black"></path><path d="M41.3688 70.7728V73.6962H42.8026V73.3671H41.7129V70.7728H41.3688Z" fill="black"></path><path d="M43.2136 70.7728V73.6962H43.5577V70.7728H43.2136Z" fill="black"></path><path d="M45.0584 70.8115C44.8768 70.8793 44.7143 70.9858 44.5709 71.131C44.418 71.2762 44.3033 71.4504 44.2268 71.6343C44.1503 71.8183 44.1121 72.0215 44.1121 72.2442C44.1121 72.5056 44.1695 72.7379 44.2746 72.9605C44.3893 73.1735 44.5518 73.3574 44.7525 73.5026C44.8768 73.5898 45.0106 73.6575 45.1635 73.7059C45.3069 73.7543 45.4598 73.7737 45.6128 73.7737C45.7848 73.7737 45.9569 73.7446 46.1289 73.6962C46.2914 73.6478 46.4444 73.5607 46.5877 73.4542V72.9896C46.4539 73.1445 46.3105 73.2606 46.1576 73.3381C46.0047 73.4155 45.8326 73.4542 45.6414 73.4542C45.4407 73.4542 45.2591 73.4058 45.0966 73.3187C44.9246 73.2316 44.7907 73.0961 44.6665 72.9315L44.5231 72.612L44.4753 72.2345C44.4753 72.0603 44.504 71.9054 44.5613 71.7602C44.6187 71.615 44.7047 71.4891 44.8099 71.373C44.915 71.2568 45.0393 71.1794 45.1922 71.1116C45.3356 71.0535 45.4885 71.0148 45.6414 71.0148C45.8326 71.0148 46.0047 71.0535 46.1576 71.1213C46.3105 71.189 46.4635 71.3052 46.5973 71.4601V71.0051C46.4444 70.8986 46.2914 70.8212 46.1289 70.7631C45.976 70.7147 45.8135 70.6857 45.6414 70.6857C45.4312 70.6857 45.24 70.7244 45.0584 70.7921" fill="black"></path><path d="M48.1457 73.3671C48.0119 73.309 47.8781 73.2219 47.7538 73.0961C47.6487 72.9799 47.5626 72.8541 47.4957 72.6992C47.4384 72.5637 47.4097 72.3991 47.4097 72.2442C47.4097 72.0796 47.4384 71.9247 47.4957 71.7699C47.5531 71.615 47.6487 71.4988 47.7538 71.373C47.8685 71.2568 47.9928 71.1794 48.1457 71.1213C48.2795 71.0632 48.442 71.0342 48.595 71.0342C48.7575 71.0342 48.9104 71.0632 49.0538 71.1213C49.1876 71.1794 49.3214 71.2568 49.4265 71.373C49.5412 71.4795 49.6368 71.615 49.6942 71.7699C49.7515 71.9247 49.7802 72.0699 49.7802 72.2442C49.7802 72.3991 49.7515 72.5637 49.6942 72.6992C49.6368 72.8541 49.5412 72.9702 49.4265 73.0961C49.3214 73.2219 49.1876 73.2897 49.0346 73.3574C48.9008 73.4155 48.7479 73.4446 48.5854 73.4446C48.4325 73.4446 48.2891 73.4155 48.1362 73.3671M48.0119 70.8309C47.8207 70.9083 47.6582 71.0148 47.5053 71.1697C47.3524 71.3052 47.2472 71.4698 47.1707 71.6537C47.0847 71.8473 47.0561 72.0506 47.0561 72.2636C47.0561 72.4572 47.0847 72.6605 47.1707 72.8541C47.2472 73.038 47.3524 73.2026 47.5053 73.3381C47.6582 73.493 47.8207 73.5994 48.0119 73.6672C48.1935 73.764 48.4038 73.7931 48.595 73.7931C48.8052 73.7931 48.9964 73.764 49.1876 73.6672C49.3787 73.5898 49.5412 73.4833 49.6942 73.3381C49.828 73.2026 49.9523 73.038 50.0192 72.8541C50.0956 72.6701 50.1339 72.4765 50.1339 72.2636C50.1339 72.0506 50.0861 71.857 50.0192 71.6537C49.9427 71.4698 49.828 71.3052 49.6942 71.1697C49.5412 71.0148 49.3787 70.9083 49.1876 70.8309C48.9964 70.7534 48.7957 70.7147 48.595 70.7147C48.4038 70.7147 48.1935 70.7631 48.0119 70.8309Z" fill="black"></path><path d="M50.8316 70.9083C50.6787 71.0438 50.6022 71.2181 50.6022 71.4214C50.6022 71.5956 50.65 71.7505 50.7456 71.8763C50.8412 72.0022 50.9845 72.1087 51.1757 72.1861L51.5294 72.341C51.6823 72.4088 51.7875 72.4862 51.8639 72.583L51.9786 72.9218C51.9786 73.0864 51.9308 73.2122 51.8161 73.309C51.711 73.4058 51.5676 73.4639 51.3956 73.4639C51.2522 73.4639 51.1279 73.4155 51.0323 73.3284C50.9368 73.2413 50.8698 73.1058 50.8221 72.9218L50.5066 73.0767C50.564 73.2897 50.6691 73.4639 50.8221 73.5801C50.975 73.6963 51.1662 73.7543 51.3956 73.7543C51.6728 73.7543 51.9022 73.6769 52.0646 73.5123C52.2271 73.3478 52.3227 73.1348 52.3227 72.8637C52.3227 72.6798 52.2749 72.5249 52.1793 72.3894C52.0838 72.2539 51.9404 72.1474 51.7588 72.0603L51.3478 71.8763L51.0515 71.6731L50.9559 71.402L51.0801 71.1019L51.3956 70.9858L51.6632 71.0729L51.883 71.3246L52.1698 71.1406C52.1029 70.9954 51.9977 70.8793 51.8735 70.8115C51.7492 70.7341 51.5963 70.6953 51.4242 70.6953C51.1853 70.6953 50.9941 70.7631 50.8412 70.8986" fill="black"></path></svg>