<svg xmlns="http://www.w3.org/2000/svg" width="318.013" height="114.935" viewBox="0 0 318.013 114.935"><g transform="translate(-0.994 -62.533)"><path d="M90.1,85.4l-13,41.9H99.6l12.9-41.9Z" fill="#ef4846"/><path d="M100.1,127.9H76.3L89.6,84.8h23.7Zm-22.2-1.2H99.1L111.6,86H90.5Z" fill="#121617"/><path d="M133.1,85.4l-14.8,41.9h22.8l4.6-15.3,7.7,15.3h16.9l15.9-41.9H163.8l-6.7,15.2-7.9-15.2Z" fill="#ef4846"/><path d="M170.7,127.9H153l-7.2-14.3-4.2,14.3H117.4l15.2-43.1h16.9L157,99.2l6.3-14.4H187Zm-16.9-1.2h16.1L185.3,86H164.2l-7,15.9L148.8,86H133.5l-14.4,40.7h21.6l4.9-16.3Z" fill="#121617"/><path d="M238.1,102.4l16.3-13.1s-8.7-6.2-26.6-6.5-39.5,10-40.4,26.4c0,0-2.2,16.8,23.5,18h32.3l6.4-22.2h-26l-2,6.5s-9.3.8-8.4-6.5c1-7.3,17.3-9.9,24.9-2.6" fill="#ef4846"/><path d="M243.7,127.9H210.9c-9.6-.5-16.5-3.1-20.5-7.9a14.7,14.7,0,0,1-3.5-10.8c.9-16.5,22-27.3,41-27,17.9.3,26.6,6.4,26.9,6.6l.6.5L238,103.2l-.4-.4c-4.7-4.5-12.9-5-18.2-3.1-3.3,1.2-5.4,3.1-5.7,5.4a4.509,4.509,0,0,0,1.1,4c1.8,1.8,5.1,1.9,6.3,1.9l2-6.6h27.2ZM227.1,83.4c-17.9,0-38.2,10.5-39,25.9a14.029,14.029,0,0,0,3.3,9.9c3.8,4.5,10.4,7,19.6,7.5h31.9l6-21H224.2l-2,6.5h-.4c-.2,0-5.1.4-7.7-2.3a5.806,5.806,0,0,1-1.4-4.9c.3-2.7,2.7-5.1,6.4-6.4,5.6-2,13.9-1.6,19.1,3l15.3-12.2c-2.4-1.4-10.9-5.7-25.6-6h-.8" fill="#121617"/><path d="M138.7,72.9S278.6,58.8,300.2,95.1c0,0,8,11.3-14.5,33.4,0,0,32.7-15.7,33.3-32.8.7-19.6-55.5-49-180.3-22.8"/><path d="M181.3,167.1S41.4,181.2,19.8,144.9c0,0-8-11.3,14.5-33.4,0,0-32.7,15.7-33.3,32.8-.7,19.6,55.5,49,180.3,22.8"/><path d="M72.9,146.1h0A11.022,11.022,0,0,1,84.3,135a12.064,12.064,0,0,1,8.6,3.1l-3.4,4.1a7.266,7.266,0,0,0-5.1-2A5.537,5.537,0,0,0,79,146v.1a5.624,5.624,0,0,0,5.7,5.9,5.929,5.929,0,0,0,3.4-.9v-2.6H83.9v-4.3h9.7v9.5a14.606,14.606,0,0,1-9.2,3.3C77.9,157.1,72.9,152.5,72.9,146.1Z"/><path d="M96.5,151V140.3h5.7v8.9c0,1.8.9,2.8,2.3,2.8s2.4-1,2.4-2.8v-8.9h5.7v16.4h-5.7v-2.2a6.023,6.023,0,0,1-4.9,2.6C98.6,157,96.5,154.7,96.5,151Z"/><path d="M115.8,134.5h6v4.2h-6Zm.1,5.8h5.7v16.4h-5.7Z"/><path d="M124.8,140.3h5.7v2.3a6.1,6.1,0,0,1,4.9-2.7c3.5,0,5.6,2.3,5.6,6v10.7h-5.7v-8.9c0-1.8-.9-2.8-2.3-2.8s-2.4,1-2.4,2.8v8.9h-5.7V140.3Z"/><path d="M143.4,148.5h0c0-5.4,3.3-8.6,7.2-8.6a6.055,6.055,0,0,1,5,2.4v-7.7h5.7v22.1h-5.7v-2.2a5.864,5.864,0,0,1-5,2.5C146.8,157,143.4,153.8,143.4,148.5Zm12.3,0h0a3.372,3.372,0,1,0-6.7-.1v.1a3.367,3.367,0,1,0,6.7,0Z"/><path d="M163.7,151.9h0c0-3.4,2.6-5.2,6.4-5.2a13.314,13.314,0,0,1,3.9.6V147c0-1.7-1.1-2.7-3.3-2.7a10.96,10.96,0,0,0-4.5.9l-1.2-4.1a15.475,15.475,0,0,1,6.6-1.3c2.9,0,4.9.7,6.2,2a6.989,6.989,0,0,1,1.8,5.2v9.4H174v-1.7a6.359,6.359,0,0,1-4.8,2.1C166.1,157,163.7,155.2,163.7,151.9Zm10.4-1.2v-.8a7.19,7.19,0,0,0-2.2-.4c-1.7,0-2.6.8-2.6,2v.1a1.791,1.791,0,0,0,2,1.8A2.653,2.653,0,0,0,174.1,150.7Z"/><path d="M181.4,154.6l2.1-3.5a11.018,11.018,0,0,0,5.6,1.9q1.5,0,1.5-.9V152c0-.6-.9-.9-2.6-1.4-3.2-.8-5.8-1.9-5.8-5.2v-.1c0-3.5,2.8-5.4,6.6-5.4a12.5,12.5,0,0,1,6.7,1.9l-2,3.6a11.43,11.43,0,0,0-4.8-1.5c-.9,0-1.3.3-1.3.8v.1c0,.6.9.9,2.7,1.5,3.2.9,5.8,2,5.8,5.2v.1c0,3.6-2.7,5.5-6.7,5.5A13.922,13.922,0,0,1,181.4,154.6Z"/><path d="M198.8,151.6v-6.7h-1.9v-4.6h1.9v-4.1h5.7v4.1h3.8v4.6h-3.8v5.5c0,1.2.5,1.6,1.6,1.6a5.45,5.45,0,0,0,2.2-.5V156a7.9,7.9,0,0,1-4,.9C200.9,157,198.8,155.5,198.8,151.6Z"/><path d="M209.8,148.5h0c0-4.8,3.4-8.6,8.3-8.6,5.7,0,8.3,4.1,8.3,9v1.2h-11a3.421,3.421,0,0,0,3.5,2.7,4.574,4.574,0,0,0,3.6-1.7l3.2,2.6a8.518,8.518,0,0,1-7.1,3.3C213.4,157,209.8,153.6,209.8,148.5Zm11.1-1.4c-.2-1.8-1.3-3-2.8-3s-2.5,1.2-2.8,3Z"/><path d="M227.5,154.6l2.1-3.5a11.018,11.018,0,0,0,5.6,1.9q1.5,0,1.5-.9V152c0-.6-.9-.9-2.6-1.4-3.2-.8-5.8-1.9-5.8-5.2v-.1c0-3.5,2.8-5.4,6.6-5.4a12.5,12.5,0,0,1,6.7,1.9l-2,3.6a11.43,11.43,0,0,0-4.8-1.5c-.9,0-1.3.3-1.3.8v.1c0,.6.9.9,2.7,1.5,3.2.9,5.8,2,5.8,5.2v.1c0,3.6-2.7,5.5-6.7,5.5A14.441,14.441,0,0,1,227.5,154.6Z"/></g></svg>